# xmcd
#
# Track frame offsets:
#	150
#	16280
#	34567
#	49297
#	65002
#	83837
#	101978
#	121788
#	139140
#	154436
#
# Disc length: 2258 seconds
#
# Revision: 0
# Processed by: cddbd v1.5.2PL0 Copyright (c) Steve Scherf et al.
# Submitted via: dBpowerAMP V4.0
#
DISCID=8708d00a
DTITLE=My Favorite Girl - Another Bite at the Apple
DYEAR=2009
DGENRE=Alt. Country
TTITLE0=Kingmaker
TTITLE1=Blue Eyes
TTITLE2=Step Inside
TTITLE3=Can't Let Go
TTITLE4=Simpler Time
TTITLE5=Better Day
TTITLE6=Daughter
TTITLE7=That Story
TTITLE8=Dreamer
TTITLE9=Superstitious
EXTD=
EXTT0=
EXTT1=
EXTT2=
EXTT3=
EXTT4=
EXTT5=
EXTT6=
EXTT7=
EXTT8=
EXTT9=
PLAYORDER=
